<svg width="32" height="32" viewBox="0 0 32 32" fill="none" xmlns="http://www.w3.org/2000/svg">
<g clip-path="url(#clip0_3_2)">
<rect width="32" height="32" rx="4" fill="#161B26"/>
<path fill-rule="evenodd" clip-rule="evenodd" d="M16.2632 4.27531C21.3791 4.27531 25.5263 8.42256 25.5263 13.5385C25.5263 16.0707 24.5102 18.3655 22.8635 20.0376C22.6948 20.1934 22.5277 20.3508 22.3623 20.5101C20.231 22.3762 18.4342 24.8231 16.9827 27.27C16.9822 27.2708 16.9813 27.2713 16.9804 27.2713C16.9794 27.2713 16.9784 27.2719 16.978 27.2728C16.8592 27.5385 16.5839 27.7247 16.2632 27.7247C15.9424 27.7247 15.6671 27.5385 15.5483 27.2728C15.5479 27.2719 15.547 27.2713 15.5459 27.2713C15.545 27.2713 15.5441 27.2708 15.5436 27.27C14.0921 24.8231 12.2954 22.3762 10.164 20.5101C9.99866 20.3508 9.83153 20.1934 9.66283 20.0376C8.01614 18.3655 7 16.0707 7 13.5385C7 8.42256 11.1473 4.27531 16.2632 4.27531ZM16.2632 8.42106C13.4369 8.42106 11.1457 10.7122 11.1457 13.5385C11.1457 16.3647 13.4369 18.6559 16.2632 18.6559C19.0894 18.6559 21.3806 16.3647 21.3806 13.5385C21.3806 10.7122 19.0894 8.42106 16.2632 8.42106Z" fill="url(#paint0_linear_3_2)"/>
</g>
<defs>
<linearGradient id="paint0_linear_3_2" x1="7" y1="6.5" x2="22.75" y2="20.25" gradientUnits="userSpaceOnUse">
<stop stop-color="#6278FF"/>
<stop offset="1" stop-color="#00DFCD"/>
</linearGradient>
<clipPath id="clip0_3_2">
<rect width="32" height="32" fill="white"/>
</clipPath>
</defs>
</svg>
